solid OpenSCAD_Model
  facet normal -0 0 -1
    outer loop
      vertex -0.607891 0.968096 0
      vertex -1.62469 -2.05088 0
      vertex -1.68712 0.968096 0
    endloop
  endfacet
  facet normal -0 0 -1
    outer loop
      vertex -4.77319 -3.05158 0
      vertex -4.79995 -4.0298 0
      vertex -5.85243 -2.0312 0
    endloop
  endfacet
  facet normal 0 -0 -1
    outer loop
      vertex 2.58521 3.94491 0
      vertex 3.59309 3.9702 0
      vertex 2.56143 1.96599 0
    endloop
  endfacet
  facet normal -0 0 -1
    outer loop
      vertex 6.74754 -0.0326072 0
      vertex 4.67827 -2.05088 0
      vertex 4.67827 0.968096 0
    endloop
  endfacet
  facet normal 0 -0 -1
    outer loop
      vertex -1.62469 -2.05088 0
      vertex -1.62469 -4.0298 0
      vertex -2.70095 -4.0298 0
    endloop
  endfacet
  facet normal 0 0 -1
    outer loop
      vertex -3.75937 -3.02909 0
      vertex -1.62469 -2.05088 0
      vertex -2.70095 -4.0298 0
    endloop
  endfacet
  facet normal 0 -0 -1
    outer loop
      vertex 4.67827 -2.05088 0
      vertex 4.67827 -3.02909 0
      vertex 3.61985 -3.02909 0
    endloop
  endfacet
  facet normal 0 -0 -1
    outer loop
      vertex 3.61985 -3.02909 0
      vertex 3.61985 -4.0298 0
      vertex 0.468369 -4.0298 0
    endloop
  endfacet
  facet normal 0 -0 -1
    outer loop
      vertex 2.56737 -2.01152 0
      vertex 3.61985 -3.02909 0
      vertex 0.468369 -4.0298 0
    endloop
  endfacet
  facet normal 0 -0 -1
    outer loop
      vertex 6.74754 -2.0312 0
      vertex 6.77133 -4.0298 0
      vertex 4.67827 -2.05088 0
    endloop
  endfacet
  facet normal 0 0 -1
    outer loop
      vertex 2.58521 -0.0326072 0
      vertex 0.447558 -0.0326072 0
      vertex 2.56143 1.96599 0
    endloop
  endfacet
  facet normal 0 -0 -1
    outer loop
      vertex 8.87925 1.96599 0
      vertex 9.91983 -0.0326072 0
      vertex 6.74754 -0.0326072 0
    endloop
  endfacet
  facet normal 0 -0 -1
    outer loop
      vertex 9.91983 -3.05158 0
      vertex 9.91983 -4.0298 0
      vertex 6.77133 -4.0298 0
    endloop
  endfacet
  facet normal 0 -0 -1
    outer loop
      vertex 8.8406 -2.0312 0
      vertex 9.91983 -3.05158 0
      vertex 6.77133 -4.0298 0
    endloop
  endfacet
  facet normal 0 0 -1
    outer loop
      vertex 6.74754 -2.0312 0
      vertex 8.8406 -2.0312 0
      vertex 6.77133 -4.0298 0
    endloop
  endfacet
  facet normal 0 -0 -1
    outer loop
      vertex -5.91486 3.96458 0
      vertex -5.8108 1.93788 0
      vertex -9.06634 2.92734 0
    endloop
  endfacet
  facet normal 0 -0 -1
    outer loop
      vertex 6.74754 -0.0326072 0
      vertex 6.74754 -2.0312 0
      vertex 4.67827 -2.05088 0
    endloop
  endfacet
  facet normal 0 -0 -1
    outer loop
      vertex 5.71291 1.94631 0
      vertex 6.74754 -0.0326072 0
      vertex 5.68615 0.968096 0
    endloop
  endfacet
  facet normal 0 0 -1
    outer loop
      vertex 8.87925 1.96599 0
      vertex 9.91983 0.987772 0
      vertex 9.91983 -0.0326072 0
    endloop
  endfacet
  facet normal 0 0 -1
    outer loop
      vertex 5.71291 1.94631 0
      vertex 8.87925 1.96599 0
      vertex 6.74754 -0.0326072 0
    endloop
  endfacet
  facet normal 0 0 -1
    outer loop
      vertex 2.56143 1.96599 0
      vertex 3.59309 3.9702 0
      vertex 4.67827 2.94701 0
    endloop
  endfacet
  facet normal -0 -0 -1
    outer loop
      vertex 5.68615 0.968096 0
      vertex 6.74754 -0.0326072 0
      vertex 4.67827 0.968096 0
    endloop
  endfacet
  facet normal 0 0 -1
    outer loop
      vertex -1.62469 -2.05088 0
      vertex -0.607891 0.968096 0
      vertex 0.447558 -0.0326072 0
    endloop
  endfacet
  facet normal 0 0 -1
    outer loop
      vertex 0.468369 -4.0298 0
      vertex -1.62469 -2.05088 0
      vertex 0.447558 -2.0312 0
    endloop
  endfacet
  facet normal 0 0 -1
    outer loop
      vertex -3.74748 0.296275 0
      vertex -3.74153 0.605481 0
      vertex -1.68712 0.968096 0
    endloop
  endfacet
  facet normal 0 0 -1
    outer loop
      vertex 4.67827 0.968096 0
      vertex 2.56143 1.96599 0
      vertex 4.67827 2.94701 0
    endloop
  endfacet
  facet normal 0 0 -1
    outer loop
      vertex -9.06634 3.96458 0
      vertex -5.91486 3.96458 0
      vertex -9.06634 2.92734 0
    endloop
  endfacet
  facet normal -0 0 -1
    outer loop
      vertex 2.56143 1.96599 0
      vertex -0.607891 0.968096 0
      vertex -0.607891 1.96599 0
    endloop
  endfacet
  facet normal 0 0 -1
    outer loop
      vertex -3.75937 0.0854533 0
      vertex -3.74748 0.296275 0
      vertex -1.68712 0.968096 0
    endloop
  endfacet
  facet normal 0 0 -1
    outer loop
      vertex -3.74153 0.605481 0
      vertex -3.73856 1.96599 0
      vertex -2.74257 1.96599 0
    endloop
  endfacet
  facet normal 0 0 -1
    outer loop
      vertex -3.76829 0.00674631 0
      vertex -3.75937 0.0854533 0
      vertex -1.68712 0.968096 0
    endloop
  endfacet
  facet normal 0 -0 -1
    outer loop
      vertex -3.78018 0.00674631 0
      vertex -3.75937 -3.02909 0
      vertex -5.85243 -2.0312 0
    endloop
  endfacet
  facet normal -0 0 -1
    outer loop
      vertex -1.68712 0.968096 0
      vertex -3.74153 0.605481 0
      vertex -2.74257 1.96599 0
    endloop
  endfacet
  facet normal 0 0 -1
    outer loop
      vertex -1.62469 -2.05088 0
      vertex -3.76829 0.00674631 0
      vertex -1.68712 0.968096 0
    endloop
  endfacet
  facet normal -0 0 -1
    outer loop
      vertex -1.62469 -2.05088 0
      vertex -3.75937 -3.02909 0
      vertex -3.76829 0.00674631 0
    endloop
  endfacet
  facet normal -0 -0 -1
    outer loop
      vertex -3.76829 0.00674631 0
      vertex -3.75937 -3.02909 0
      vertex -3.78018 0.00674631 0
    endloop
  endfacet
  facet normal -0 0 -1
    outer loop
      vertex -3.78018 0.00674631 0
      vertex -5.85243 -0.0326072 0
      vertex -4.61859 0.779761 0
    endloop
  endfacet
  facet normal 0 0 -1
    outer loop
      vertex -7.9663 -0.0326072 0
      vertex -9.14959 0.996205 0
      vertex -9.14959 1.01026 0
    endloop
  endfacet
  facet normal 0 -0 -1
    outer loop
      vertex -4.79401 2.90766 0
      vertex -4.79401 1.96599 0
      vertex -5.49863 1.96599 0
    endloop
  endfacet
  facet normal 0 -0 -1
    outer loop
      vertex -9.06634 2.92734 0
      vertex -5.8108 1.93226 0
      vertex -9.14959 1.01026 0
    endloop
  endfacet
  facet normal 0 0 -1
    outer loop
      vertex -5.91486 3.96458 0
      vertex -4.79401 2.90766 0
      vertex -5.76918 1.94912 0
    endloop
  endfacet
  facet normal 0 0 -1
    outer loop
      vertex -4.79401 2.90766 0
      vertex -5.49863 1.96599 0
      vertex -5.76918 1.94912 0
    endloop
  endfacet
  facet normal 0 0 -1
    outer loop
      vertex -5.8108 1.93788 0
      vertex -5.91486 3.96458 0
      vertex -5.76918 1.94912 0
    endloop
  endfacet
  facet normal 0 0 -1
    outer loop
      vertex -9.06634 2.92734 0
      vertex -5.8108 1.93788 0
      vertex -5.8108 1.93226 0
    endloop
  endfacet
  facet normal 0 0 -1
    outer loop
      vertex -10.0802 1.90696 0
      vertex -9.06634 2.92734 0
      vertex -9.28635 1.148 0
    endloop
  endfacet
  facet normal 0 0 -1
    outer loop
      vertex -10.0802 1.90696 0
      vertex -10.0802 2.92734 0
      vertex -9.06634 2.92734 0
    endloop
  endfacet
  facet normal 0 0 -1
    outer loop
      vertex -9.28635 1.148 0
      vertex -9.06634 2.92734 0
      vertex -9.14959 1.01026 0
    endloop
  endfacet
  facet normal 0 0 -1
    outer loop
      vertex -5.8108 1.93226 0
      vertex -5.85243 -0.0326072 0
      vertex -7.9663 -0.0326072 0
    endloop
  endfacet
  facet normal 0 -0 -1
    outer loop
      vertex -7.9663 -2.0312 0
      vertex -5.85243 -2.0312 0
      vertex -7.98711 -4.0298 0
    endloop
  endfacet
  facet normal 0 0 -1
    outer loop
      vertex -10.0802 -2.05088 0
      vertex -7.9663 -0.0326072 0
      vertex -7.9663 -2.0312 0
    endloop
  endfacet
  facet normal 0 0 -1
    outer loop
      vertex -10.0802 -2.05088 0
      vertex -9.43501 0.970907 0
      vertex -7.9663 -0.0326072 0
    endloop
  endfacet
  facet normal 0 0 -1
    outer loop
      vertex -10.0802 -2.05088 0
      vertex -10.0802 0.968096 0
      vertex -9.43501 0.970907 0
    endloop
  endfacet
  facet normal 0 0 -1
    outer loop
      vertex -7.98711 -4.0298 0
      vertex -5.85243 -2.0312 0
      vertex -4.79995 -4.0298 0
    endloop
  endfacet
  facet normal 0 0 -1
    outer loop
      vertex -3.78018 0.00674631 0
      vertex -5.85243 -2.0312 0
      vertex -5.85243 -0.0326072 0
    endloop
  endfacet
  facet normal 0 0 -1
    outer loop
      vertex -5.85243 -2.0312 0
      vertex -3.75937 -3.02909 0
      vertex -4.77319 -3.05158 0
    endloop
  endfacet
  facet normal 0 0 -1
    outer loop
      vertex -7.9663 -0.0326072 0
      vertex -9.43501 0.970907 0
      vertex -9.18527 0.984961 0
    endloop
  endfacet
  facet normal 0 0 -1
    outer loop
      vertex -7.9663 -2.0312 0
      vertex -7.98711 -4.0298 0
      vertex -10.0802 -2.05088 0
    endloop
  endfacet
  facet normal 0 0 -1
    outer loop
      vertex -5.8108 1.93226 0
      vertex -7.9663 -0.0326072 0
      vertex -9.14959 1.01026 0
    endloop
  endfacet
  facet normal 0 0 -1
    outer loop
      vertex -7.9663 -0.0326072 0
      vertex -9.18527 0.984961 0
      vertex -9.14959 0.996205 0
    endloop
  endfacet
  facet normal -0 0 -1
    outer loop
      vertex -4.61859 0.779761 0
      vertex -5.85243 -0.0326072 0
      vertex -5.8108 1.93226 0
    endloop
  endfacet
  facet normal 0 0 -1
    outer loop
      vertex 2.56737 -2.01152 0
      vertex 2.58521 -0.0326072 0
      vertex 4.67827 -2.05088 0
    endloop
  endfacet
  facet normal -0 0 -1
    outer loop
      vertex 0.447558 -2.0312 0
      vertex -1.62469 -2.05088 0
      vertex 0.447558 -0.0326072 0
    endloop
  endfacet
  facet normal 0 0 -1
    outer loop
      vertex 0.447558 -0.0326072 0
      vertex -0.607891 0.968096 0
      vertex 2.56143 1.96599 0
    endloop
  endfacet
  facet normal 0 0 -1
    outer loop
      vertex 4.67827 -2.05088 0
      vertex 2.58521 -0.0326072 0
      vertex 4.67827 0.968096 0
    endloop
  endfacet
  facet normal 0 0 -1
    outer loop
      vertex 2.58521 -0.0326072 0
      vertex 2.56143 1.96599 0
      vertex 4.67827 0.968096 0
    endloop
  endfacet
  facet normal 0 0 -1
    outer loop
      vertex 0.447558 -2.0312 0
      vertex 2.56737 -2.01152 0
      vertex 0.468369 -4.0298 0
    endloop
  endfacet
  facet normal 0 0 -1
    outer loop
      vertex 2.56737 -2.01152 0
      vertex 4.67827 -2.05088 0
      vertex 3.61985 -3.02909 0
    endloop
  endfacet
  facet normal -0 0 1
    outer loop
      vertex -1.68712 0.968096 1
      vertex -1.62469 -2.05088 1
      vertex -0.607891 0.968096 1
    endloop
  endfacet
  facet normal 0 0 1
    outer loop
      vertex -5.85243 -2.0312 1
      vertex -4.79995 -4.0298 1
      vertex -4.77319 -3.05158 1
    endloop
  endfacet
  facet normal 0 0 1
    outer loop
      vertex 2.56143 1.96599 1
      vertex 3.59309 3.9702 1
      vertex 2.58521 3.94491 1
    endloop
  endfacet
  facet normal 0 0 1
    outer loop
      vertex 4.67827 0.968096 1
      vertex 4.67827 -2.05088 1
      vertex 6.74754 -0.0326072 1
    endloop
  endfacet
  facet normal 0 0 1
    outer loop
      vertex -2.70095 -4.0298 1
      vertex -1.62469 -4.0298 1
      vertex -1.62469 -2.05088 1
    endloop
  endfacet
  facet normal 0 -0 1
    outer loop
      vertex -2.70095 -4.0298 1
      vertex -1.62469 -2.05088 1
      vertex -3.75937 -3.02909 1
    endloop
  endfacet
  facet normal 0 0 1
    outer loop
      vertex 3.61985 -3.02909 1
      vertex 4.67827 -3.02909 1
      vertex 4.67827 -2.05088 1
    endloop
  endfacet
  facet normal 0 0 1
    outer loop
      vertex 0.468369 -4.0298 1
      vertex 3.61985 -4.0298 1
      vertex 3.61985 -3.02909 1
    endloop
  endfacet
  facet normal 0 0 1
    outer loop
      vertex 0.468369 -4.0298 1
      vertex 3.61985 -3.02909 1
      vertex 2.56737 -2.01152 1
    endloop
  endfacet
  facet normal -0 0 1
    outer loop
      vertex 4.67827 -2.05088 1
      vertex 6.77133 -4.0298 1
      vertex 6.74754 -2.0312 1
    endloop
  endfacet
  facet normal 0 0 1
    outer loop
      vertex 2.56143 1.96599 1
      vertex 0.447558 -0.0326072 1
      vertex 2.58521 -0.0326072 1
    endloop
  endfacet
  facet normal 0 0 1
    outer loop
      vertex 6.74754 -0.0326072 1
      vertex 9.91983 -0.0326072 1
      vertex 8.87925 1.96599 1
    endloop
  endfacet
  facet normal 0 0 1
    outer loop
      vertex 6.77133 -4.0298 1
      vertex 9.91983 -4.0298 1
      vertex 9.91983 -3.05158 1
    endloop
  endfacet
  facet normal 0 0 1
    outer loop
      vertex 6.77133 -4.0298 1
      vertex 9.91983 -3.05158 1
      vertex 8.8406 -2.0312 1
    endloop
  endfacet
  facet normal 0 -0 1
    outer loop
      vertex 6.77133 -4.0298 1
      vertex 8.8406 -2.0312 1
      vertex 6.74754 -2.0312 1
    endloop
  endfacet
  facet normal -0 0 1
    outer loop
      vertex -9.06634 2.92734 1
      vertex -5.8108 1.93788 1
      vertex -5.91486 3.96458 1
    endloop
  endfacet
  facet normal 0 0 1
    outer loop
      vertex 4.67827 -2.05088 1
      vertex 6.74754 -2.0312 1
      vertex 6.74754 -0.0326072 1
    endloop
  endfacet
  facet normal -0 0 1
    outer loop
      vertex 5.68615 0.968096 1
      vertex 6.74754 -0.0326072 1
      vertex 5.71291 1.94631 1
    endloop
  endfacet
  facet normal 0 -0 1
    outer loop
      vertex 9.91983 -0.0326072 1
      vertex 9.91983 0.987772 1
      vertex 8.87925 1.96599 1
    endloop
  endfacet
  facet normal 0 -0 1
    outer loop
      vertex 6.74754 -0.0326072 1
      vertex 8.87925 1.96599 1
      vertex 5.71291 1.94631 1
    endloop
  endfacet
  facet normal 0 0 1
    outer loop
      vertex 4.67827 2.94701 1
      vertex 3.59309 3.9702 1
      vertex 2.56143 1.96599 1
    endloop
  endfacet
  facet normal -0 0 1
    outer loop
      vertex 4.67827 0.968096 1
      vertex 6.74754 -0.0326072 1
      vertex 5.68615 0.968096 1
    endloop
  endfacet
  facet normal 0 0 1
    outer loop
      vertex 0.447558 -0.0326072 1
      vertex -0.607891 0.968096 1
      vertex -1.62469 -2.05088 1
    endloop
  endfacet
  facet normal 0 0 1
    outer loop
      vertex 0.447558 -2.0312 1
      vertex -1.62469 -2.05088 1
      vertex 0.468369 -4.0298 1
    endloop
  endfacet
  facet normal 0 0 1
    outer loop
      vertex -1.68712 0.968096 1
      vertex -3.74153 0.605481 1
      vertex -3.74748 0.296275 1
    endloop
  endfacet
  facet normal 0 0 1
    outer loop
      vertex 4.67827 2.94701 1
      vertex 2.56143 1.96599 1
      vertex 4.67827 0.968096 1
    endloop
  endfacet
  facet normal 0 0 1
    outer loop
      vertex -9.06634 2.92734 1
      vertex -5.91486 3.96458 1
      vertex -9.06634 3.96458 1
    endloop
  endfacet
  facet normal -0 0 1
    outer loop
      vertex -0.607891 1.96599 1
      vertex -0.607891 0.968096 1
      vertex 2.56143 1.96599 1
    endloop
  endfacet
  facet normal 0 0 1
    outer loop
      vertex -1.68712 0.968096 1
      vertex -3.74748 0.296275 1
      vertex -3.75937 0.0854533 1
    endloop
  endfacet
  facet normal 0 0 1
    outer loop
      vertex -2.74257 1.96599 1
      vertex -3.73856 1.96599 1
      vertex -3.74153 0.605481 1
    endloop
  endfacet
  facet normal 0 0 1
    outer loop
      vertex -1.68712 0.968096 1
      vertex -3.75937 0.0854533 1
      vertex -3.76829 0.00674631 1
    endloop
  endfacet
  facet normal -0 0 1
    outer loop
      vertex -5.85243 -2.0312 1
      vertex -3.75937 -3.02909 1
      vertex -3.78018 0.00674631 1
    endloop
  endfacet
  facet normal 0 0 1
    outer loop
      vertex -2.74257 1.96599 1
      vertex -3.74153 0.605481 1
      vertex -1.68712 0.968096 1
    endloop
  endfacet
  facet normal 0 0 1
    outer loop
      vertex -1.68712 0.968096 1
      vertex -3.76829 0.00674631 1
      vertex -1.62469 -2.05088 1
    endloop
  endfacet
  facet normal 0 0 1
    outer loop
      vertex -3.76829 0.00674631 1
      vertex -3.75937 -3.02909 1
      vertex -1.62469 -2.05088 1
    endloop
  endfacet
  facet normal -0 0 1
    outer loop
      vertex -3.78018 0.00674631 1
      vertex -3.75937 -3.02909 1
      vertex -3.76829 0.00674631 1
    endloop
  endfacet
  facet normal 0 0 1
    outer loop
      vertex -4.61859 0.779761 1
      vertex -5.85243 -0.0326072 1
      vertex -3.78018 0.00674631 1
    endloop
  endfacet
  facet normal 0 0 1
    outer loop
      vertex -9.14959 1.01026 1
      vertex -9.14959 0.996205 1
      vertex -7.9663 -0.0326072 1
    endloop
  endfacet
  facet normal 0 0 1
    outer loop
      vertex -5.49863 1.96599 1
      vertex -4.79401 1.96599 1
      vertex -4.79401 2.90766 1
    endloop
  endfacet
  facet normal 0 0 1
    outer loop
      vertex -9.14959 1.01026 1
      vertex -5.8108 1.93226 1
      vertex -9.06634 2.92734 1
    endloop
  endfacet
  facet normal 0 -0 1
    outer loop
      vertex -5.76918 1.94912 1
      vertex -4.79401 2.90766 1
      vertex -5.91486 3.96458 1
    endloop
  endfacet
  facet normal 0 0 1
    outer loop
      vertex -5.76918 1.94912 1
      vertex -5.49863 1.96599 1
      vertex -4.79401 2.90766 1
    endloop
  endfacet
  facet normal 0 0 1
    outer loop
      vertex -5.76918 1.94912 1
      vertex -5.91486 3.96458 1
      vertex -5.8108 1.93788 1
    endloop
  endfacet
  facet normal 0 -0 1
    outer loop
      vertex -5.8108 1.93226 1
      vertex -5.8108 1.93788 1
      vertex -9.06634 2.92734 1
    endloop
  endfacet
  facet normal 0 -0 1
    outer loop
      vertex -9.28635 1.148 1
      vertex -9.06634 2.92734 1
      vertex -10.0802 1.90696 1
    endloop
  endfacet
  facet normal 0 0 1
    outer loop
      vertex -9.06634 2.92734 1
      vertex -10.0802 2.92734 1
      vertex -10.0802 1.90696 1
    endloop
  endfacet
  facet normal 0 -0 1
    outer loop
      vertex -9.14959 1.01026 1
      vertex -9.06634 2.92734 1
      vertex -9.28635 1.148 1
    endloop
  endfacet
  facet normal 0 0 1
    outer loop
      vertex -7.9663 -0.0326072 1
      vertex -5.85243 -0.0326072 1
      vertex -5.8108 1.93226 1
    endloop
  endfacet
  facet normal 0 0 1
    outer loop
      vertex -7.98711 -4.0298 1
      vertex -5.85243 -2.0312 1
      vertex -7.9663 -2.0312 1
    endloop
  endfacet
  facet normal 0 -0 1
    outer loop
      vertex -7.9663 -2.0312 1
      vertex -7.9663 -0.0326072 1
      vertex -10.0802 -2.05088 1
    endloop
  endfacet
  facet normal 0 0 1
    outer loop
      vertex -7.9663 -0.0326072 1
      vertex -9.43501 0.970907 1
      vertex -10.0802 -2.05088 1
    endloop
  endfacet
  facet normal 0 0 1
    outer loop
      vertex -9.43501 0.970907 1
      vertex -10.0802 0.968096 1
      vertex -10.0802 -2.05088 1
    endloop
  endfacet
  facet normal 0 0 1
    outer loop
      vertex -4.79995 -4.0298 1
      vertex -5.85243 -2.0312 1
      vertex -7.98711 -4.0298 1
    endloop
  endfacet
  facet normal -0 0 1
    outer loop
      vertex -5.85243 -0.0326072 1
      vertex -5.85243 -2.0312 1
      vertex -3.78018 0.00674631 1
    endloop
  endfacet
  facet normal 0 -0 1
    outer loop
      vertex -4.77319 -3.05158 1
      vertex -3.75937 -3.02909 1
      vertex -5.85243 -2.0312 1
    endloop
  endfacet
  facet normal 0 0 1
    outer loop
      vertex -9.18527 0.984961 1
      vertex -9.43501 0.970907 1
      vertex -7.9663 -0.0326072 1
    endloop
  endfacet
  facet normal -0 0 1
    outer loop
      vertex -10.0802 -2.05088 1
      vertex -7.98711 -4.0298 1
      vertex -7.9663 -2.0312 1
    endloop
  endfacet
  facet normal -0 0 1
    outer loop
      vertex -9.14959 1.01026 1
      vertex -7.9663 -0.0326072 1
      vertex -5.8108 1.93226 1
    endloop
  endfacet
  facet normal 0 0 1
    outer loop
      vertex -9.14959 0.996205 1
      vertex -9.18527 0.984961 1
      vertex -7.9663 -0.0326072 1
    endloop
  endfacet
  facet normal 0 0 1
    outer loop
      vertex -5.8108 1.93226 1
      vertex -5.85243 -0.0326072 1
      vertex -4.61859 0.779761 1
    endloop
  endfacet
  facet normal 0 0 1
    outer loop
      vertex 4.67827 -2.05088 1
      vertex 2.58521 -0.0326072 1
      vertex 2.56737 -2.01152 1
    endloop
  endfacet
  facet normal 0 0 1
    outer loop
      vertex 0.447558 -0.0326072 1
      vertex -1.62469 -2.05088 1
      vertex 0.447558 -2.0312 1
    endloop
  endfacet
  facet normal 0 0 1
    outer loop
      vertex 2.56143 1.96599 1
      vertex -0.607891 0.968096 1
      vertex 0.447558 -0.0326072 1
    endloop
  endfacet
  facet normal 0 0 1
    outer loop
      vertex 4.67827 0.968096 1
      vertex 2.58521 -0.0326072 1
      vertex 4.67827 -2.05088 1
    endloop
  endfacet
  facet normal 0 0 1
    outer loop
      vertex 4.67827 0.968096 1
      vertex 2.56143 1.96599 1
      vertex 2.58521 -0.0326072 1
    endloop
  endfacet
  facet normal 0 -0 1
    outer loop
      vertex 0.468369 -4.0298 1
      vertex 2.56737 -2.01152 1
      vertex 0.447558 -2.0312 1
    endloop
  endfacet
  facet normal 0 -0 1
    outer loop
      vertex 3.61985 -3.02909 1
      vertex 4.67827 -2.05088 1
      vertex 2.56737 -2.01152 1
    endloop
  endfacet
  facet normal 0.999626 -0.0273435 0
    outer loop
      vertex -4.77319 -3.05158 0
      vertex -4.79995 -4.0298 1
      vertex -4.79995 -4.0298 0
    endloop
  endfacet
  facet normal 0.999626 -0.0273435 0
    outer loop
      vertex -4.77319 -3.05158 0
      vertex -4.77319 -3.05158 1
      vertex -4.79995 -4.0298 1
    endloop
  endfacet
  facet normal 0.0221756 -0.999754 0
    outer loop
      vertex -3.75937 -3.02909 0
      vertex -4.77319 -3.05158 1
      vertex -4.77319 -3.05158 0
    endloop
  endfacet
  facet normal 0.0221756 -0.999754 0
    outer loop
      vertex -3.75937 -3.02909 0
      vertex -3.75937 -3.02909 1
      vertex -4.77319 -3.05158 1
    endloop
  endfacet
  facet normal -0.687016 -0.726642 0
    outer loop
      vertex -2.70095 -4.0298 0
      vertex -3.75937 -3.02909 1
      vertex -3.75937 -3.02909 0
    endloop
  endfacet
  facet normal -0.687016 -0.726642 0
    outer loop
      vertex -2.70095 -4.0298 0
      vertex -2.70095 -4.0298 1
      vertex -3.75937 -3.02909 1
    endloop
  endfacet
  facet normal 0 -1 0
    outer loop
      vertex -1.62469 -4.0298 0
      vertex -2.70095 -4.0298 1
      vertex -2.70095 -4.0298 0
    endloop
  endfacet
  facet normal 0 -1 0
    outer loop
      vertex -1.62469 -4.0298 0
      vertex -1.62469 -4.0298 1
      vertex -2.70095 -4.0298 1
    endloop
  endfacet
  facet normal 1 0 0
    outer loop
      vertex -1.62469 -2.05088 0
      vertex -1.62469 -4.0298 1
      vertex -1.62469 -4.0298 0
    endloop
  endfacet
  facet normal 1 0 -0
    outer loop
      vertex -1.62469 -2.05088 0
      vertex -1.62469 -2.05088 1
      vertex -1.62469 -4.0298 1
    endloop
  endfacet
  facet normal -0.687016 -0.726642 0
    outer loop
      vertex 0.468369 -4.0298 0
      vertex -1.62469 -2.05088 1
      vertex -1.62469 -2.05088 0
    endloop
  endfacet
  facet normal -0.687016 -0.726642 0
    outer loop
      vertex 0.468369 -4.0298 0
      vertex 0.468369 -4.0298 1
      vertex -1.62469 -2.05088 1
    endloop
  endfacet
  facet normal 0 -1 0
    outer loop
      vertex 3.61985 -4.0298 0
      vertex 0.468369 -4.0298 1
      vertex 0.468369 -4.0298 0
    endloop
  endfacet
  facet normal 0 -1 0
    outer loop
      vertex 3.61985 -4.0298 0
      vertex 3.61985 -4.0298 1
      vertex 0.468369 -4.0298 1
    endloop
  endfacet
  facet normal 1 0 0
    outer loop
      vertex 3.61985 -3.02909 0
      vertex 3.61985 -4.0298 1
      vertex 3.61985 -4.0298 0
    endloop
  endfacet
  facet normal 1 0 -0
    outer loop
      vertex 3.61985 -3.02909 0
      vertex 3.61985 -3.02909 1
      vertex 3.61985 -4.0298 1
    endloop
  endfacet
  facet normal 0 -1 0
    outer loop
      vertex 4.67827 -3.02909 0
      vertex 3.61985 -3.02909 1
      vertex 3.61985 -3.02909 0
    endloop
  endfacet
  facet normal 0 -1 0
    outer loop
      vertex 4.67827 -3.02909 0
      vertex 4.67827 -3.02909 1
      vertex 3.61985 -3.02909 1
    endloop
  endfacet
  facet normal 1 0 0
    outer loop
      vertex 4.67827 -2.05088 0
      vertex 4.67827 -3.02909 1
      vertex 4.67827 -3.02909 0
    endloop
  endfacet
  facet normal 1 0 -0
    outer loop
      vertex 4.67827 -2.05088 0
      vertex 4.67827 -2.05088 1
      vertex 4.67827 -3.02909 1
    endloop
  endfacet
  facet normal -0.687016 -0.726642 0
    outer loop
      vertex 6.77133 -4.0298 0
      vertex 4.67827 -2.05088 1
      vertex 4.67827 -2.05088 0
    endloop
  endfacet
  facet normal -0.687016 -0.726642 0
    outer loop
      vertex 6.77133 -4.0298 0
      vertex 6.77133 -4.0298 1
      vertex 4.67827 -2.05088 1
    endloop
  endfacet
  facet normal 0 -1 0
    outer loop
      vertex 9.91983 -4.0298 0
      vertex 6.77133 -4.0298 1
      vertex 6.77133 -4.0298 0
    endloop
  endfacet
  facet normal 0 -1 0
    outer loop
      vertex 9.91983 -4.0298 0
      vertex 9.91983 -4.0298 1
      vertex 6.77133 -4.0298 1
    endloop
  endfacet
  facet normal 1 0 0
    outer loop
      vertex 9.91983 -3.05158 0
      vertex 9.91983 -4.0298 1
      vertex 9.91983 -4.0298 0
    endloop
  endfacet
  facet normal 1 0 -0
    outer loop
      vertex 9.91983 -3.05158 0
      vertex 9.91983 -3.05158 1
      vertex 9.91983 -4.0298 1
    endloop
  endfacet
  facet normal 0.687016 0.726642 0
    outer loop
      vertex 8.8406 -2.0312 0
      vertex 9.91983 -3.05158 1
      vertex 9.91983 -3.05158 0
    endloop
  endfacet
  facet normal 0.687016 0.726642 -0
    outer loop
      vertex 8.8406 -2.0312 0
      vertex 8.8406 -2.0312 1
      vertex 9.91983 -3.05158 1
    endloop
  endfacet
  facet normal 0 1 0
    outer loop
      vertex 6.74754 -2.0312 0
      vertex 8.8406 -2.0312 1
      vertex 8.8406 -2.0312 0
    endloop
  endfacet
  facet normal 0 1 0
    outer loop
      vertex 6.74754 -2.0312 0
      vertex 6.74754 -2.0312 1
      vertex 8.8406 -2.0312 1
    endloop
  endfacet
  facet normal 1 0 0
    outer loop
      vertex 6.74754 -0.0326072 0
      vertex 6.74754 -2.0312 1
      vertex 6.74754 -2.0312 0
    endloop
  endfacet
  facet normal 1 0 -0
    outer loop
      vertex 6.74754 -0.0326072 0
      vertex 6.74754 -0.0326072 1
      vertex 6.74754 -2.0312 1
    endloop
  endfacet
  facet normal 0 -1 0
    outer loop
      vertex 9.91983 -0.0326072 0
      vertex 6.74754 -0.0326072 1
      vertex 6.74754 -0.0326072 0
    endloop
  endfacet
  facet normal 0 -1 0
    outer loop
      vertex 9.91983 -0.0326072 0
      vertex 9.91983 -0.0326072 1
      vertex 6.74754 -0.0326072 1
    endloop
  endfacet
  facet normal 1 0 0
    outer loop
      vertex 9.91983 0.987772 0
      vertex 9.91983 -0.0326072 1
      vertex 9.91983 -0.0326072 0
    endloop
  endfacet
  facet normal 1 0 -0
    outer loop
      vertex 9.91983 0.987772 0
      vertex 9.91983 0.987772 1
      vertex 9.91983 -0.0326072 1
    endloop
  endfacet
  facet normal 0.684935 0.728604 0
    outer loop
      vertex 8.87925 1.96599 0
      vertex 9.91983 0.987772 1
      vertex 9.91983 0.987772 0
    endloop
  endfacet
  facet normal 0.684935 0.728604 -0
    outer loop
      vertex 8.87925 1.96599 0
      vertex 8.87925 1.96599 1
      vertex 9.91983 0.987772 1
    endloop
  endfacet
  facet normal -0.00621422 0.999981 0
    outer loop
      vertex 5.71291 1.94631 0
      vertex 8.87925 1.96599 1
      vertex 8.87925 1.96599 0
    endloop
  endfacet
  facet normal -0.00621422 0.999981 0
    outer loop
      vertex 5.71291 1.94631 0
      vertex 5.71291 1.94631 1
      vertex 8.87925 1.96599 1
    endloop
  endfacet
  facet normal -0.999626 0.0273435 0
    outer loop
      vertex 5.68615 0.968096 0
      vertex 5.71291 1.94631 1
      vertex 5.71291 1.94631 0
    endloop
  endfacet
  facet normal -0.999626 0.0273435 0
    outer loop
      vertex 5.68615 0.968096 0
      vertex 5.68615 0.968096 1
      vertex 5.71291 1.94631 1
    endloop
  endfacet
  facet normal 0 1 0
    outer loop
      vertex 4.67827 0.968096 0
      vertex 5.68615 0.968096 1
      vertex 5.68615 0.968096 0
    endloop
  endfacet
  facet normal 0 1 0
    outer loop
      vertex 4.67827 0.968096 0
      vertex 4.67827 0.968096 1
      vertex 5.68615 0.968096 1
    endloop
  endfacet
  facet normal 1 0 0
    outer loop
      vertex 4.67827 2.94701 0
      vertex 4.67827 0.968096 1
      vertex 4.67827 0.968096 0
    endloop
  endfacet
  facet normal 1 0 -0
    outer loop
      vertex 4.67827 2.94701 0
      vertex 4.67827 2.94701 1
      vertex 4.67827 0.968096 1
    endloop
  endfacet
  facet normal 0.686021 0.727582 0
    outer loop
      vertex 3.59309 3.9702 0
      vertex 4.67827 2.94701 1
      vertex 4.67827 2.94701 0
    endloop
  endfacet
  facet normal 0.686021 0.727582 -0
    outer loop
      vertex 3.59309 3.9702 0
      vertex 3.59309 3.9702 1
      vertex 4.67827 2.94701 1
    endloop
  endfacet
  facet normal -0.025093 0.999685 0
    outer loop
      vertex 2.58521 3.94491 0
      vertex 3.59309 3.9702 1
      vertex 3.59309 3.9702 0
    endloop
  endfacet
  facet normal -0.025093 0.999685 0
    outer loop
      vertex 2.58521 3.94491 0
      vertex 2.58521 3.94491 1
      vertex 3.59309 3.9702 1
    endloop
  endfacet
  facet normal -0.999928 0.0120182 0
    outer loop
      vertex 2.56143 1.96599 0
      vertex 2.58521 3.94491 1
      vertex 2.58521 3.94491 0
    endloop
  endfacet
  facet normal -0.999928 0.0120182 0
    outer loop
      vertex 2.56143 1.96599 0
      vertex 2.56143 1.96599 1
      vertex 2.58521 3.94491 1
    endloop
  endfacet
  facet normal 0 1 0
    outer loop
      vertex -0.607891 1.96599 0
      vertex 2.56143 1.96599 1
      vertex 2.56143 1.96599 0
    endloop
  endfacet
  facet normal 0 1 0
    outer loop
      vertex -0.607891 1.96599 0
      vertex -0.607891 1.96599 1
      vertex 2.56143 1.96599 1
    endloop
  endfacet
  facet normal -1 0 0
    outer loop
      vertex -0.607891 0.968096 0
      vertex -0.607891 1.96599 1
      vertex -0.607891 1.96599 0
    endloop
  endfacet
  facet normal -1 0 0
    outer loop
      vertex -0.607891 0.968096 0
      vertex -0.607891 0.968096 1
      vertex -0.607891 1.96599 1
    endloop
  endfacet
  facet normal 0 1 0
    outer loop
      vertex -1.68712 0.968096 0
      vertex -0.607891 0.968096 1
      vertex -0.607891 0.968096 0
    endloop
  endfacet
  facet normal 0 1 0
    outer loop
      vertex -1.68712 0.968096 0
      vertex -1.68712 0.968096 1
      vertex -0.607891 0.968096 1
    endloop
  endfacet
  facet normal 0.687016 0.726642 0
    outer loop
      vertex -2.74257 1.96599 0
      vertex -1.68712 0.968096 1
      vertex -1.68712 0.968096 0
    endloop
  endfacet
  facet normal 0.687016 0.726642 -0
    outer loop
      vertex -2.74257 1.96599 0
      vertex -2.74257 1.96599 1
      vertex -1.68712 0.968096 1
    endloop
  endfacet
  facet normal 0 1 0
    outer loop
      vertex -3.73856 1.96599 0
      vertex -2.74257 1.96599 1
      vertex -2.74257 1.96599 0
    endloop
  endfacet
  facet normal 0 1 0
    outer loop
      vertex -3.73856 1.96599 0
      vertex -3.73856 1.96599 1
      vertex -2.74257 1.96599 1
    endloop
  endfacet
  facet normal -0.999998 0.00218528 0
    outer loop
      vertex -3.74153 0.605481 0
      vertex -3.73856 1.96599 1
      vertex -3.73856 1.96599 0
    endloop
  endfacet
  facet normal -0.999998 0.00218528 0
    outer loop
      vertex -3.74153 0.605481 0
      vertex -3.74153 0.605481 1
      vertex -3.73856 1.96599 1
    endloop
  endfacet
  facet normal -0.999815 0.019227 0
    outer loop
      vertex -3.74748 0.296275 0
      vertex -3.74153 0.605481 1
      vertex -3.74153 0.605481 0
    endloop
  endfacet
  facet normal -0.999815 0.019227 0
    outer loop
      vertex -3.74748 0.296275 0
      vertex -3.74748 0.296275 1
      vertex -3.74153 0.605481 1
    endloop
  endfacet
  facet normal -0.998413 0.05632 0
    outer loop
      vertex -3.75937 0.0854533 0
      vertex -3.74748 0.296275 1
      vertex -3.74748 0.296275 0
    endloop
  endfacet
  facet normal -0.998413 0.05632 0
    outer loop
      vertex -3.75937 0.0854533 0
      vertex -3.75937 0.0854533 1
      vertex -3.74748 0.296275 1
    endloop
  endfacet
  facet normal -0.99364 0.112602 0
    outer loop
      vertex -3.76829 0.00674631 0
      vertex -3.75937 0.0854533 1
      vertex -3.75937 0.0854533 0
    endloop
  endfacet
  facet normal -0.99364 0.112602 0
    outer loop
      vertex -3.76829 0.00674631 0
      vertex -3.76829 0.00674631 1
      vertex -3.75937 0.0854533 1
    endloop
  endfacet
  facet normal 0 1 0
    outer loop
      vertex -3.78018 0.00674631 0
      vertex -3.76829 0.00674631 1
      vertex -3.76829 0.00674631 0
    endloop
  endfacet
  facet normal 0 1 0
    outer loop
      vertex -3.78018 0.00674631 0
      vertex -3.78018 0.00674631 1
      vertex -3.76829 0.00674631 1
    endloop
  endfacet
  facet normal 0.677852 0.735199 0
    outer loop
      vertex -4.61859 0.779761 0
      vertex -3.78018 0.00674631 1
      vertex -3.78018 0.00674631 0
    endloop
  endfacet
  facet normal 0.677852 0.735199 -0
    outer loop
      vertex -4.61859 0.779761 0
      vertex -4.61859 0.779761 1
      vertex -3.78018 0.00674631 1
    endloop
  endfacet
  facet normal 0.69503 0.718981 0
    outer loop
      vertex -5.8108 1.93226 0
      vertex -4.61859 0.779761 1
      vertex -4.61859 0.779761 0
    endloop
  endfacet
  facet normal 0.69503 0.718981 -0
    outer loop
      vertex -5.8108 1.93226 0
      vertex -5.8108 1.93226 1
      vertex -4.61859 0.779761 1
    endloop
  endfacet
  facet normal 1 0 0
    outer loop
      vertex -5.8108 1.93788 0
      vertex -5.8108 1.93226 1
      vertex -5.8108 1.93226 0
    endloop
  endfacet
  facet normal 1 0 -0
    outer loop
      vertex -5.8108 1.93788 0
      vertex -5.8108 1.93788 1
      vertex -5.8108 1.93226 1
    endloop
  endfacet
  facet normal 0.260786 -0.965397 0
    outer loop
      vertex -5.76918 1.94912 0
      vertex -5.8108 1.93788 1
      vertex -5.8108 1.93788 0
    endloop
  endfacet
  facet normal 0.260786 -0.965397 0
    outer loop
      vertex -5.76918 1.94912 0
      vertex -5.76918 1.94912 1
      vertex -5.8108 1.93788 1
    endloop
  endfacet
  facet normal 0.0622177 -0.998063 0
    outer loop
      vertex -5.49863 1.96599 0
      vertex -5.76918 1.94912 1
      vertex -5.76918 1.94912 0
    endloop
  endfacet
  facet normal 0.0622177 -0.998063 0
    outer loop
      vertex -5.49863 1.96599 0
      vertex -5.49863 1.96599 1
      vertex -5.76918 1.94912 1
    endloop
  endfacet
  facet normal 0 -1 0
    outer loop
      vertex -4.79401 1.96599 0
      vertex -5.49863 1.96599 1
      vertex -5.49863 1.96599 0
    endloop
  endfacet
  facet normal 0 -1 0
    outer loop
      vertex -4.79401 1.96599 0
      vertex -4.79401 1.96599 1
      vertex -5.49863 1.96599 1
    endloop
  endfacet
  facet normal 1 0 0
    outer loop
      vertex -4.79401 2.90766 0
      vertex -4.79401 1.96599 1
      vertex -4.79401 1.96599 0
    endloop
  endfacet
  facet normal 1 0 -0
    outer loop
      vertex -4.79401 2.90766 0
      vertex -4.79401 2.90766 1
      vertex -4.79401 1.96599 1
    endloop
  endfacet
  facet normal 0.686052 0.727552 0
    outer loop
      vertex -5.91486 3.96458 0
      vertex -4.79401 2.90766 1
      vertex -4.79401 2.90766 0
    endloop
  endfacet
  facet normal 0.686052 0.727552 -0
    outer loop
      vertex -5.91486 3.96458 0
      vertex -5.91486 3.96458 1
      vertex -4.79401 2.90766 1
    endloop
  endfacet
  facet normal 0 1 0
    outer loop
      vertex -9.06634 3.96458 0
      vertex -5.91486 3.96458 1
      vertex -5.91486 3.96458 0
    endloop
  endfacet
  facet normal 0 1 0
    outer loop
      vertex -9.06634 3.96458 0
      vertex -9.06634 3.96458 1
      vertex -5.91486 3.96458 1
    endloop
  endfacet
  facet normal -1 0 0
    outer loop
      vertex -9.06634 2.92734 0
      vertex -9.06634 3.96458 1
      vertex -9.06634 3.96458 0
    endloop
  endfacet
  facet normal -1 0 0
    outer loop
      vertex -9.06634 2.92734 0
      vertex -9.06634 2.92734 1
      vertex -9.06634 3.96458 1
    endloop
  endfacet
  facet normal 0 1 0
    outer loop
      vertex -10.0802 2.92734 0
      vertex -9.06634 2.92734 1
      vertex -9.06634 2.92734 0
    endloop
  endfacet
  facet normal 0 1 0
    outer loop
      vertex -10.0802 2.92734 0
      vertex -10.0802 2.92734 1
      vertex -9.06634 2.92734 1
    endloop
  endfacet
  facet normal -1 0 0
    outer loop
      vertex -10.0802 1.90696 0
      vertex -10.0802 2.92734 1
      vertex -10.0802 2.92734 0
    endloop
  endfacet
  facet normal -1 0 0
    outer loop
      vertex -10.0802 1.90696 0
      vertex -10.0802 1.90696 1
      vertex -10.0802 2.92734 1
    endloop
  endfacet
  facet normal -0.69106 -0.722798 0
    outer loop
      vertex -9.28635 1.148 0
      vertex -10.0802 1.90696 1
      vertex -10.0802 1.90696 0
    endloop
  endfacet
  facet normal -0.69106 -0.722798 0
    outer loop
      vertex -9.28635 1.148 0
      vertex -9.28635 1.148 1
      vertex -10.0802 1.90696 1
    endloop
  endfacet
  facet normal -0.709614 -0.704591 0
    outer loop
      vertex -9.14959 1.01026 0
      vertex -9.28635 1.148 1
      vertex -9.28635 1.148 0
    endloop
  endfacet
  facet normal -0.709614 -0.704591 0
    outer loop
      vertex -9.14959 1.01026 0
      vertex -9.14959 1.01026 1
      vertex -9.28635 1.148 1
    endloop
  endfacet
  facet normal -1 0 0
    outer loop
      vertex -9.14959 0.996205 0
      vertex -9.14959 1.01026 1
      vertex -9.14959 1.01026 0
    endloop
  endfacet
  facet normal -1 0 0
    outer loop
      vertex -9.14959 0.996205 0
      vertex -9.14959 0.996205 1
      vertex -9.14959 1.01026 1
    endloop
  endfacet
  facet normal -0.300582 0.953756 0
    outer loop
      vertex -9.18527 0.984961 0
      vertex -9.14959 0.996205 1
      vertex -9.14959 0.996205 0
    endloop
  endfacet
  facet normal -0.300582 0.953756 0
    outer loop
      vertex -9.18527 0.984961 0
      vertex -9.18527 0.984961 1
      vertex -9.14959 0.996205 1
    endloop
  endfacet
  facet normal -0.0561889 0.99842 0
    outer loop
      vertex -9.43501 0.970907 0
      vertex -9.18527 0.984961 1
      vertex -9.18527 0.984961 0
    endloop
  endfacet
  facet normal -0.0561889 0.99842 0
    outer loop
      vertex -9.43501 0.970907 0
      vertex -9.43501 0.970907 1
      vertex -9.18527 0.984961 1
    endloop
  endfacet
  facet normal -0.00435695 0.999991 0
    outer loop
      vertex -10.0802 0.968096 0
      vertex -9.43501 0.970907 1
      vertex -9.43501 0.970907 0
    endloop
  endfacet
  facet normal -0.00435695 0.999991 0
    outer loop
      vertex -10.0802 0.968096 0
      vertex -10.0802 0.968096 1
      vertex -9.43501 0.970907 1
    endloop
  endfacet
  facet normal -1 0 0
    outer loop
      vertex -10.0802 -2.05088 0
      vertex -10.0802 0.968096 1
      vertex -10.0802 0.968096 0
    endloop
  endfacet
  facet normal -1 0 0
    outer loop
      vertex -10.0802 -2.05088 0
      vertex -10.0802 -2.05088 1
      vertex -10.0802 0.968096 1
    endloop
  endfacet
  facet normal -0.687016 -0.726642 0
    outer loop
      vertex -7.98711 -4.0298 0
      vertex -10.0802 -2.05088 1
      vertex -10.0802 -2.05088 0
    endloop
  endfacet
  facet normal -0.687016 -0.726642 0
    outer loop
      vertex -7.98711 -4.0298 0
      vertex -7.98711 -4.0298 1
      vertex -10.0802 -2.05088 1
    endloop
  endfacet
  facet normal 0 -1 0
    outer loop
      vertex -4.79995 -4.0298 0
      vertex -7.98711 -4.0298 1
      vertex -7.98711 -4.0298 0
    endloop
  endfacet
  facet normal 0 -1 0
    outer loop
      vertex -4.79995 -4.0298 0
      vertex -4.79995 -4.0298 1
      vertex -7.98711 -4.0298 1
    endloop
  endfacet
  facet normal 1 0 -0
    outer loop
      vertex -7.9663 -0.0326072 0
      vertex -7.9663 -0.0326072 1
      vertex -7.9663 -2.0312 0
    endloop
  endfacet
  facet normal 1 -0 0
    outer loop
      vertex -7.9663 -2.0312 1
      vertex -7.9663 -2.0312 0
      vertex -7.9663 -0.0326072 1
    endloop
  endfacet
  facet normal 0 -1 0
    outer loop
      vertex -5.85243 -0.0326072 0
      vertex -5.85243 -0.0326072 1
      vertex -7.9663 -0.0326072 0
    endloop
  endfacet
  facet normal 0 -1 0
    outer loop
      vertex -7.9663 -0.0326072 1
      vertex -7.9663 -0.0326072 0
      vertex -5.85243 -0.0326072 1
    endloop
  endfacet
  facet normal -1 0 0
    outer loop
      vertex -5.85243 -2.0312 0
      vertex -5.85243 -2.0312 1
      vertex -5.85243 -0.0326072 0
    endloop
  endfacet
  facet normal -1 -0 -0
    outer loop
      vertex -5.85243 -0.0326072 1
      vertex -5.85243 -0.0326072 0
      vertex -5.85243 -2.0312 1
    endloop
  endfacet
  facet normal 0 1 0
    outer loop
      vertex -7.9663 -2.0312 0
      vertex -7.9663 -2.0312 1
      vertex -5.85243 -2.0312 0
    endloop
  endfacet
  facet normal 0 1 0
    outer loop
      vertex -5.85243 -2.0312 1
      vertex -5.85243 -2.0312 0
      vertex -7.9663 -2.0312 1
    endloop
  endfacet
  facet normal 0 -1 0
    outer loop
      vertex 2.58521 -0.0326072 0
      vertex 2.58521 -0.0326072 1
      vertex 0.447558 -0.0326072 0
    endloop
  endfacet
  facet normal 0 -1 0
    outer loop
      vertex 0.447558 -0.0326072 1
      vertex 0.447558 -0.0326072 0
      vertex 2.58521 -0.0326072 1
    endloop
  endfacet
  facet normal -0.999959 0.00901394 0
    outer loop
      vertex 2.56737 -2.01152 0
      vertex 2.56737 -2.01152 1
      vertex 2.58521 -0.0326072 0
    endloop
  endfacet
  facet normal -0.999959 0.00901394 0
    outer loop
      vertex 2.58521 -0.0326072 1
      vertex 2.58521 -0.0326072 0
      vertex 2.56737 -2.01152 1
    endloop
  endfacet
  facet normal -0.00928189 0.999957 0
    outer loop
      vertex 0.447558 -2.0312 0
      vertex 0.447558 -2.0312 1
      vertex 2.56737 -2.01152 0
    endloop
  endfacet
  facet normal -0.00928189 0.999957 0
    outer loop
      vertex 2.56737 -2.01152 1
      vertex 2.56737 -2.01152 0
      vertex 0.447558 -2.0312 1
    endloop
  endfacet
  facet normal 1 0 -0
    outer loop
      vertex 0.447558 -0.0326072 0
      vertex 0.447558 -0.0326072 1
      vertex 0.447558 -2.0312 0
    endloop
  endfacet
  facet normal 1 -0 0
    outer loop
      vertex 0.447558 -2.0312 1
      vertex 0.447558 -2.0312 0
      vertex 0.447558 -0.0326072 1
    endloop
  endfacet
endsolid OpenSCAD_Model
